<svg width="24" height="24" viewBox="0 0 24 24" fill="none" xmlns="http://www.w3.org/2000/svg">
<path d="M6.616 21C6.15533 21 5.771 20.846 5.463 20.538C5.155 20.23 5.00067 19.8457 5 19.385V4.615C5 4.155 5.15433 3.771 5.463 3.463C5.77167 3.155 6.156 3.00067 6.616 3H13.829C14.0443 3 14.2537 3.04333 14.457 3.13C14.6603 3.21667 14.8343 3.333 14.979 3.479L18.52 7.02C18.6647 7.16533 18.7807 7.33933 18.868 7.542C18.9553 7.74467 18.999 7.954 18.999 8.17V19.384C18.999 19.844 18.8447 20.2283 18.536 20.537C18.2273 20.8457 17.8437 21 17.385 21H6.616ZM14 7.192C14 7.42467 14.0767 7.61733 14.23 7.77C14.3833 7.92267 14.576 7.99933 14.808 8H18L14 4V7.192ZM10.75 18.692C11.294 18.692 11.7537 18.5043 12.129 18.129C12.5043 17.753 12.692 17.2933 12.692 16.75V12.77H14.654C14.8607 12.77 15.0407 12.6963 15.194 12.549C15.3473 12.4017 15.4237 12.2187 15.423 12C15.423 11.7933 15.3463 11.6133 15.193 11.46C15.0397 11.3067 14.8597 11.23 14.653 11.23H12.693C12.4863 11.23 12.3063 11.3067 12.153 11.46C11.9997 11.6133 11.923 11.7933 11.923 12V15.317C11.7657 15.145 11.589 15.0173 11.393 14.934C11.1977 14.85 10.9833 14.808 10.75 14.808C10.2067 14.808 9.747 14.9957 9.371 15.371C8.99567 15.7463 8.808 16.206 8.808 16.75C8.808 17.294 8.99567 17.7537 9.371 18.129C9.74633 18.5043 10.206 18.692 10.75 18.692Z" fill="black"/>
</svg>
