<svg width="1024" height="1024" viewBox="0 0 1024 1024" fill="none" xmlns="http://www.w3.org/2000/svg">
<path d="M335.122 774.64C318.373 773.941 301.522 771.897 284.788 770.667C249.164 768.293 213.559 765.654 177.974 762.75L84.176 755.297C72.131 754.293 59.889 753.806 47.896 752.411C45.412 752.122 41.587 751.657 39.441 750.398C36.996 748.964 35.601 745.481 35.201 742.82C34.638 739.069 35.051 734.857 35.101 731.062L35.327 708.419L35.443 622.468L35.866 337.956L35.906 275.871C35.906 264.767 35.065 253.184 36.193 242.153C36.333 240.781 36.741 239.799 37.625 238.732C40.207 235.616 43.303 235.554 47.07 235.18C62.684 233.629 78.713 233.474 94.406 232.66L207.263 227.185L582.248 207.349C628.883 204.589 675.729 202.629 722.273 198.722C722.458 198.696 722.642 198.657 722.829 198.645C729.306 198.21 799.725 221.38 812.965 225.425L923.091 259.382C941.66 265.13 960.548 270.343 978.899 276.731C980.966 277.451 984.961 278.657 986.419 280.231C988.229 282.185 988.728 285.181 988.802 287.724C988.988 294.15 988.664 300.655 988.606 307.091L988.046 356.604L987.073 519.051L987.414 650.261C987.459 668.874 988.08 687.693 987.447 706.287C987.339 709.43 987.538 714.163 984.988 716.328C983.386 717.689 981.333 718.729 979.41 719.554C966.67 725.017 952.842 729.124 939.7 733.643L891.02 750.872C848.307 765.925 805.383 780.374 762.261 794.214C754.171 796.903 746.109 799.676 738.076 802.533C733.187 804.239 728.115 806.388 723.003 807.254C716.006 808.44 705.566 806.548 698.343 805.919C678.328 804.175 658.363 801.938 638.341 800.261C537.339 790.903 436.262 782.363 335.122 774.64ZM717.709 210.722L54.013 251.112L53.811 516.461C53.534 565.41 53.5337 614.36 53.81 663.309L53.808 706.877C53.757 716.189 53.434 725.565 53.751 734.871C72.35 736.975 91.011 738.508 109.619 740.623C177.75 747.342 245.938 753.426 314.182 758.874C341.353 761.051 368.6 762.86 395.735 765.388L643.735 787.839C668.906 789.963 694.11 793.558 719.298 795.07L719.462 325.704L719.34 243.43C719.341 237.795 720.258 214.424 719.066 210.903C718.664 210.842 718.11 210.702 717.709 210.722ZM726.941 212.167L726.975 609.484L726.98 728.165C726.96 749.326 726.332 770.675 726.974 791.817C750.494 781.803 774.435 773.607 798.406 764.824C833.386 751.877 868.464 739.198 903.638 726.789L968.617 703.591C969.644 675.649 968.545 647.397 968.494 619.42L967.841 436.11L967.62 341.548C967.549 328.638 968.628 306.63 966.221 294.504C963.956 292.671 960.92 291.488 958.211 290.459C949.447 287.132 940.316 284.568 931.446 281.495L846.071 252.248C819.746 243.007 793.327 234.035 766.819 225.332C754.354 221.157 739.352 215.342 726.941 212.167Z" fill="#020302"/>
<path d="M687.097 758.043C677.036 758.4 666.378 756.709 656.305 755.944L586.016 750.276C506.199 744.366 426.438 737.715 346.744 730.324L140.149 714.01L110.853 711.588C103.002 710.986 90.878 711.379 83.68 708.64C81.867 703.208 82.866 676.463 82.858 669.011L83.136 561.456L83.16 375.978C83.136 347.033 82.723 318.036 83.067 289.096C83.104 285.996 83.265 282.902 84.429 279.994C88.263 278.005 194.587 273.315 208.38 272.583L447.944 259.93C503.592 257.438 559.223 254.583 614.834 251.366C638.153 250.283 661.466 249.067 684.772 247.719C685.712 247.557 686.289 247.566 687.218 247.787C688.524 251.35 687.13 332.731 687.047 346.291C686.861 377.084 686.854 407.879 687.025 438.672C687.071 454.966 686.81 471.286 687.19 487.576C670.084 492.375 651.899 491.636 635.239 485.464C630.164 483.638 624.278 480.463 618.751 480.984C605.248 482.257 592.723 501.65 584.705 511.309C577.539 497.976 569.11 478.276 554.678 471.505C551.023 469.79 547.215 469.448 543.42 470.924C528.051 476.901 516.371 505.59 509.96 519.953C506.617 513.256 504.414 505.845 501.847 498.818C494.873 479.728 480.603 437.887 466.469 425.354C463.253 422.503 459.205 420.145 454.756 420.556C449.85 421.01 445.82 424.474 442.724 428.061C425.805 447.669 415.831 500.902 413.605 526.808C411.699 548.983 411.734 572.043 413.277 594.243C416.983 579.653 421.166 565.359 424.018 550.549C428.862 525.389 432.528 500.131 438.591 475.202C441.327 463.95 443.96 452.992 448.954 442.475C450.303 439.635 452.038 435.616 455.171 434.502C466.493 436.72 489.872 511.74 495.759 524.504C499.35 532.288 504.272 540.538 510.376 546.61L510.893 547.119C523.452 532.844 530.823 495.32 544.113 485.703C545.507 484.695 546.833 484.122 548.585 484.481C555.03 485.803 565.002 501.047 567.98 506.571C570.843 511.881 572.949 517.916 576.376 522.875C577.772 524.896 579.725 527.101 582.339 527.349C590.258 528.101 603.306 506.497 609.601 500.759C612.531 498.089 616.045 495.922 620.137 495.991C629.082 496.14 640.392 503.886 650.308 505.642C662.116 507.734 674.969 505.054 686.963 505.558L687.334 681.625C687.366 707.092 686.769 732.585 687.097 758.043ZM676.86 256.228L99.611 286.16C102.601 288.502 105.575 290.852 108.682 293.039L112.55 295.954C132.93 295.672 153.371 293.819 173.725 292.703L269.072 288.004L563.658 273.679L638.498 269.847C652.459 269.046 666.612 267.601 680.582 267.467L680.714 256.207L676.86 256.228ZM91.082 288.8C90.635 299.57 90.885 310.406 90.864 321.188L90.607 365.54L90.495 506.035L90.497 632.222C90.493 653.922 89.717 675.884 90.63 697.544C94.51 696.142 97.726 694.298 101.106 691.935L106.964 688.574L106.919 441.814C107.142 395.169 106.993 348.525 106.471 301.882C102.206 298.057 96.052 291.325 91.082 288.8ZM381.198 376.536C372.832 379.555 368.679 386.974 365.115 394.64C352.553 421.667 345.555 470.235 344.377 500.184C340.448 490.786 332.702 460.046 324.327 456.548C323.042 456.012 321.747 456.036 320.489 456.633C317.15 458.218 315.394 462.526 314.37 465.835C309.985 480.004 308.748 495.472 303.275 509.255L302.989 508.631C295.988 493.122 286.182 451.448 269.748 445.06C266.223 443.69 262.168 443.719 258.75 445.401C250.792 449.316 247.259 460.56 244.819 468.409C242.256 476.654 240.268 485.076 237.97 493.397L237.542 492.633C232.771 484.011 222.703 453.765 213.125 451.345C211.908 451.037 210.862 451.06 209.758 451.723C203.978 455.193 196.674 480.114 193.531 487.274C189.533 480.338 185.38 468.037 181.17 462.429C180.135 461.049 178.68 459.702 176.943 459.333C175.171 458.956 173.772 459.798 172.454 460.859C168.473 464.063 165.409 468.982 162.279 473.013C158.294 478.145 153.891 483.431 149.194 487.915C137.704 487.545 126.519 487.707 115.094 489.089L115.1 498.624C120.38 498.217 125.677 497.748 130.971 497.573C138.545 497.322 147.876 498.767 155.046 496.226C158.568 494.977 161.284 492.432 163.696 489.659C166.518 486.413 168.82 482.738 171.605 479.47C176.955 490.392 183.371 503.015 193.798 509.839C202.259 499.462 206.246 484.516 212.345 472.573C218.4 487.01 230.364 508.408 240.947 519.714C241.054 519.565 241.159 519.415 241.263 519.264C249.47 507.207 255.318 464.254 264.056 458.146C264.998 458.1 265.001 457.906 265.771 458.586C268.518 461.011 270.563 465.631 272.34 468.868C280.436 483.616 287.295 499.333 293.986 514.764C297.464 522.786 300.379 531.395 304.734 538.976C315.402 518.273 317.395 495.416 324.331 473.522C329.865 482.784 331.969 493.981 334.8 504.308C339.244 520.514 343.253 537.491 349.028 553.257C353.001 536.84 355.315 520.116 357.764 503.419C362.641 470.166 364.827 435.287 376.395 403.502C377.77 399.725 379.032 395.007 382.089 392.23C382.784 392.086 383.212 391.767 383.827 392.25C388.516 395.936 389.265 431.637 389.489 439.007C389.866 457.308 390.047 475.612 390.032 493.918C389.987 513.113 390.077 532.307 390.301 551.5C390.473 565.531 390.388 579.814 392.216 593.75C393.344 602.35 395.713 616.672 401.986 623.176C403.767 625.023 406.46 626.029 409.016 625.942C412.903 625.81 416.154 623.229 418.62 620.435C437.917 598.576 448.47 536.668 452.838 507.617C454.816 494.462 455.609 480.167 459.553 467.467C465.957 483.896 471.875 500.515 478.233 516.964C482.967 529.213 487.9 542.518 494.908 553.65C497.526 557.809 501.302 562.788 505.89 564.818C509.498 566.414 513.549 566.244 517.16 564.748C532.243 558.499 542.382 522.452 548.886 508.106C556.122 519.798 564.446 542.894 579.542 546.197C584.486 547.278 589.145 545.677 593.222 542.895C597.144 540.219 600.518 536.696 603.657 533.16C617.934 517.074 618.96 513.054 641.288 508.308C635.561 505.591 623.669 497.976 617.709 500.086C607.131 503.831 591.676 536.278 581.035 531.344C567.067 524.869 563.727 496.443 546.951 488.29C546.786 488.443 546.621 488.596 546.458 488.75C543.526 491.547 541.49 494.835 539.598 498.398C535.638 505.859 518.301 550.839 511.172 550.844C508.605 550.846 506.292 548.466 504.726 546.67C490.856 530.767 478.299 490.442 469.887 469.217C465.891 459.136 461.864 449.074 455.351 440.305C449.401 453.226 445.685 466.614 442.499 480.441C438.566 497.507 420.937 606.535 411.365 612.413C410.321 612.149 410.141 612.148 409.593 611.139C407.063 606.482 407.674 587.666 407.517 581.223C406.342 532.841 407.452 484.56 403.792 436.245C402.716 422.032 402.274 406.525 398.223 392.853C396.358 386.56 393.712 379.342 386.888 377.093C385.09 376.5 383.078 376.441 381.198 376.536ZM381.545 403.305C376.504 418.321 373.116 433.629 370.438 449.237C366.305 473.319 363.77 497.786 360.145 521.966C358.315 534.178 356.796 547.191 352.842 558.933C351.953 561.573 350.868 564.136 348.748 566.016L348.026 566.058C343.691 559.588 337.252 530.83 334.574 521.53C331.328 510.256 327.111 498.973 324.839 487.461C323.996 498.976 314.433 536.724 306.159 543.707C305.316 544.419 305.069 544.475 304.018 544.503C296.041 537.904 276.4 480.523 264.503 464.797C262.274 470.07 260.484 475.491 258.855 480.975C256.57 488.668 249.806 519.487 243.592 522.74C242.243 523.446 240.707 523.297 239.36 522.68C229.496 518.163 217.5 492.59 212.513 482.557C211.334 484.625 210.329 486.631 209.427 488.837C207.281 493.951 205.229 499.166 202.885 504.19C201.892 506.316 198.859 510.04 198.774 512.172C200.115 512.291 200.982 512.036 201.996 511.097C205.204 508.126 207.251 500.383 212.203 500.015C214.527 499.843 216.602 501.389 218.136 502.961C225.788 510.806 231.745 538.778 245.069 538.865C247.348 538.88 249.392 537.489 250.916 535.911C256.419 530.216 265.325 509.606 267.235 501.722L267.559 502.294C275.269 516.196 288.212 557.331 302.605 561.925C304.591 562.559 306.602 562.503 308.44 561.463C314.423 558.078 317.665 546.786 319.181 540.516C320.931 533.274 321.3 525.542 323.795 518.518C327.25 528.341 330.176 538.372 333.167 548.346C335.715 556.847 337.956 566.047 342.379 573.806C343.989 576.631 346.191 579.447 349.165 580.922C351.034 581.848 353.031 582.032 355.013 581.352C359.75 579.727 362.825 574.617 364.79 570.28C373.098 551.942 376.928 516.932 379.425 496.451C381.255 481.429 383.22 466.447 383.811 451.313C384.247 440.13 383.791 428.964 383.047 417.803C382.755 413.435 383.016 407.423 381.545 403.305ZM170.144 487.77C169.013 489.445 167.893 491.098 166.932 492.88C169.464 497.339 178.796 514.005 182.98 515.418L183.599 515.233C184.708 513.544 185.764 511.862 187.119 510.355C184.636 507.607 182.094 504.851 179.913 501.853C177.188 498.106 173.602 490.356 170.144 487.77ZM119.386 692.672C113.661 696.038 107.909 699.358 102.13 702.631C119.19 704.771 136.323 705.757 153.452 707.162C187.194 710.019 220.95 712.693 254.721 715.185L555.115 739.919L626.961 745.724C640.565 746.757 654.345 747.241 667.879 748.912C672.527 749.31 677.23 749.889 681.889 750.048C682.132 745.044 682.393 740.059 682.291 735.047C661.8 732.677 641.013 731.483 620.443 729.922L491.042 720.293C402.638 713.15 314.192 706.528 225.71 700.425C190.266 697.96 154.869 694.509 119.386 692.672Z" fill="#020302"/>
<path d="M850.867 618.756C849.481 618.699 847.303 618.804 846.076 618.22C844.778 617.603 842.813 615.454 842.431 614.037C842.217 613.247 842.338 612.655 842.678 611.946C843.218 610.823 844.676 609.497 845.88 609.138C847.92 608.53 850.757 609.025 852.914 608.904C855.87 608.738 858.945 608.029 861.747 607.088C877.404 601.833 887.575 587.788 894.554 573.531C913.343 535.143 910.986 486.851 898.855 446.89C894.032 431.006 887.825 415.7 877.591 402.456C875.057 399.177 872.212 395.444 869.06 392.736C865.522 389.695 853.617 384.653 852.678 380.401C852.24 378.422 853.366 377.016 854.456 375.534C854.876 375.491 855.296 375.447 855.717 375.418C862.473 374.959 869.986 380.619 874.825 384.891C881.593 390.866 886.162 397.89 890.725 405.575C906.296 432.31 915.426 462.304 917.391 493.18C919.472 528.089 913.114 572.868 888.965 599.837C878.64 611.369 866.363 617.846 850.867 618.756Z" fill="#020302"/>
<path d="M833.165 597.25C832.192 597.205 831.149 597.152 830.209 596.886C828.884 596.512 826.877 594.825 826.432 593.486C826.028 592.27 826.112 591.524 826.724 590.421C828.218 587.725 832.207 587.432 834.874 586.767C847.576 583.598 856.937 573.037 863.33 562.18C879.069 535.454 885.501 502.848 877.572 472.501C871.645 449.815 858.881 424.885 838.748 411.767C833.225 408.169 827.355 407.392 823.556 404.918C822.387 404.157 821.569 402.867 821.484 401.465C821.359 399.395 822.463 397.962 823.787 396.527C830.513 396.156 836.214 398.23 841.812 401.799C865.166 416.688 881.108 445.132 887.042 471.623C894.271 503.892 888.943 540.218 870.915 568.224C861.756 582.451 850.012 593.549 833.165 597.25Z" fill="#020302"/>
<path d="M822.489 568.858C820.999 568.548 819.781 568.15 818.753 566.951C817.903 565.96 817.116 564.486 817.382 563.145C818.141 559.303 826.461 557.827 829.652 556.391C831.747 555.449 833.715 554.197 835.535 552.801C848.231 543.062 854.526 524.711 856.523 509.423C860.141 481.728 849.341 451.049 823.8 437.331C822.069 436.401 820.237 435.466 818.361 434.88C814.587 433.701 808.017 433.905 805.856 429.925C805.472 429.218 805.335 428.416 805.532 427.644C806.07 425.527 807.566 424.533 809.373 423.527C818.897 423.26 828.693 428.688 836.148 434.115C852.409 445.953 862.131 463.474 865.168 483.242C868.568 505.369 864.74 531.818 851.164 550.156C843.534 560.462 835.301 566.872 822.489 568.858Z" fill="#020302"/>
<path d="M806.683 540.413C801.047 540.535 795.905 539.379 791.047 536.506C781.482 530.849 775.609 521.004 772.959 510.432C769.831 497.95 772.041 485.176 778.69 474.191C784.238 465.026 791.559 459.181 802.001 456.62C809.066 455.962 815.006 456.773 820.877 461.111C829.777 467.687 834.592 479.312 836.159 489.955C838.056 502.837 836.05 517.184 828.075 527.79C822.515 535.183 815.866 539.117 806.683 540.413ZM805.067 465.571C796.447 467.957 790.401 472.312 785.993 480.17C781.04 489 779.474 499.372 782.255 509.157C784.545 517.212 789.591 524.96 797.065 529.041C799.36 530.294 801.788 531.014 804.374 531.331C810.59 530.729 815.48 528.935 819.58 523.93C826.462 515.528 828.185 502.927 826.971 492.451C826.01 484.165 822.677 474.872 815.998 469.463C812.901 466.955 809.076 465.407 805.067 465.571Z" fill="#020302"/>
</svg>
